<svg width="552" height="470" viewBox="0 0 552 470" fill="none" xmlns="http://www.w3.org/2000/svg">
<g opacity="0.6">
<mask id="mask0_1007_1085" style="mask-type:alpha" maskUnits="userSpaceOnUse" x="0" y="0" width="552" height="471">
<rect y="0.000488281" width="552" height="470" rx="20" fill="white"/>
</mask>
<g mask="url(#mask0_1007_1085)">
<path d="M633.689 373.96C652.16 424.499 647.054 448.875 612.843 473.453C541.487 524.719 418.858 470.057 339.37 449.401C277.979 433.444 206.637 408.765 197.568 341.703C187.348 266.24 273.731 199.107 351.247 222.367C406.836 239.056 422.921 234.541 462.522 191.13C506.52 142.9 538.395 134.047 579.467 158.653C611.914 178.081 622.748 211.729 620.088 244.665C614.053 319.393 614.175 320.576 633.689 373.96Z" fill="#F7F7F7"/>
<path d="M286.723 194.714C306.468 252.209 297.21 281.023 248.925 312.323C148.214 377.611 -10.7132 323.36 -115.194 305.422C-195.888 291.564 -289.054 268.306 -294.56 190.819C-300.778 103.628 -178.356 18.6797 -76.7763 39.8055C-3.93081 54.966 18.0738 48.458 75.4487 -5.21577C139.194 -64.8489 182.789 -77.6341 235.394 -52.1207C276.953 -31.978 288.138 6.41391 281.309 45.0194C265.815 132.611 265.861 133.982 286.723 194.714Z" fill="#F7F7F7"/>
</g>
</g>
</svg>
