<svg width="161" height="48" viewBox="0 0 161 48" fill="none" xmlns="http://www.w3.org/2000/svg">
<path d="M13.9961 37.288C11.0521 37.288 8.76406 36.488 7.13206 34.888C5.53206 33.256 4.73206 30.968 4.73206 28.024V16.504H0.220063V10.888H0.700063C1.98006 10.888 2.97206 10.552 3.67606 9.88C4.38006 9.208 4.73206 8.232 4.73206 6.952V4.936H11.0201V10.888H17.0201V16.504H11.0201V27.688C11.0201 28.552 11.1641 29.288 11.4521 29.896C11.7721 30.504 12.2521 30.968 12.8921 31.288C13.5641 31.608 14.4121 31.768 15.4361 31.768C15.6601 31.768 15.9161 31.752 16.2041 31.72C16.5241 31.688 16.8281 31.656 17.1161 31.624V37C16.6681 37.064 16.1561 37.128 15.5801 37.192C15.0041 37.256 14.4761 37.288 13.9961 37.288ZM34.3578 47.56C32.4058 47.56 30.5978 47.24 28.9338 46.6C27.2698 45.96 25.8298 45.064 24.6138 43.912C23.4298 42.792 22.5658 41.464 22.0218 39.928L27.8778 37.72C28.2618 38.936 29.0138 39.912 30.1338 40.648C31.2858 41.416 32.6938 41.8 34.3578 41.8C35.6378 41.8 36.7578 41.56 37.7178 41.08C38.7098 40.6 39.4778 39.896 40.0218 38.968C40.5658 38.072 40.8378 36.984 40.8378 35.704V29.752L42.0378 31.192C41.1418 32.76 39.9418 33.944 38.4378 34.744C36.9338 35.544 35.2218 35.944 33.3018 35.944C30.8698 35.944 28.6938 35.384 26.7738 34.264C24.8538 33.144 23.3498 31.608 22.2618 29.656C21.1738 27.704 20.6298 25.512 20.6298 23.08C20.6298 20.616 21.1738 18.424 22.2618 16.504C23.3498 14.584 24.8378 13.08 26.7258 11.992C28.6138 10.872 30.7578 10.312 33.1578 10.312C35.1098 10.312 36.8218 10.728 38.2938 11.56C39.7978 12.36 41.0458 13.528 42.0378 15.064L41.1738 16.648V10.888H47.1258V35.704C47.1258 37.976 46.5658 40.008 45.4458 41.8C44.3578 43.592 42.8538 45 40.9338 46.024C39.0458 47.048 36.8538 47.56 34.3578 47.56ZM34.0698 30.136C35.4138 30.136 36.5818 29.848 37.5738 29.272C38.5978 28.664 39.3978 27.832 39.9738 26.776C40.5498 25.72 40.8378 24.504 40.8378 23.128C40.8378 21.784 40.5338 20.584 39.9258 19.528C39.3498 18.44 38.5498 17.592 37.5258 16.984C36.5338 16.376 35.3818 16.072 34.0698 16.072C32.7578 16.072 31.5738 16.376 30.5178 16.984C29.4618 17.592 28.6298 18.44 28.0218 19.528C27.4458 20.584 27.1578 21.784 27.1578 23.128C27.1578 24.472 27.4458 25.672 28.0218 26.728C28.6298 27.784 29.4458 28.616 30.4698 29.224C31.5258 29.832 32.7258 30.136 34.0698 30.136Z" fill="#0F87DE"/>
<path d="M52.9983 46.6V10.888H58.9023V16.072L58.3263 14.776C59.2223 13.368 60.4383 12.28 61.9743 11.512C63.5103 10.712 65.2863 10.312 67.3023 10.312C69.7663 10.312 71.9903 10.92 73.9743 12.136C75.9583 13.352 77.5263 14.984 78.6783 17.032C79.8623 19.08 80.4543 21.384 80.4543 23.944C80.4543 26.472 79.8783 28.776 78.7263 30.856C77.5743 32.936 76.0063 34.584 74.0223 35.8C72.0383 36.984 69.7823 37.576 67.2543 37.576C65.3663 37.576 63.6223 37.208 62.0223 36.472C60.4543 35.704 59.2063 34.616 58.2783 33.208L59.2863 31.96V46.6H52.9983ZM66.5343 31.816C67.9743 31.816 69.2543 31.48 70.3743 30.808C71.4943 30.136 72.3583 29.208 72.9663 28.024C73.6063 26.84 73.9263 25.48 73.9263 23.944C73.9263 22.408 73.6063 21.064 72.9663 19.912C72.3583 18.728 71.4943 17.8 70.3743 17.128C69.2543 16.424 67.9743 16.072 66.5343 16.072C65.1583 16.072 63.9103 16.408 62.7903 17.08C61.7023 17.752 60.8383 18.696 60.1983 19.912C59.5903 21.096 59.2863 22.44 59.2863 23.944C59.2863 25.48 59.5903 26.84 60.1983 28.024C60.8383 29.208 61.7023 30.136 62.7903 30.808C63.9103 31.48 65.1583 31.816 66.5343 31.816ZM85.2483 37V10.888H91.1523V16.696L90.6723 15.832C91.2803 13.88 92.2243 12.52 93.5043 11.752C94.8163 10.984 96.3843 10.6 98.2083 10.6H99.7443V16.168H97.4883C95.6963 16.168 94.2563 16.728 93.1683 17.848C92.0803 18.936 91.5363 20.472 91.5363 22.456V37H85.2483ZM115.969 37.576C113.409 37.576 111.073 36.984 108.961 35.8C106.881 34.616 105.217 33 103.969 30.952C102.753 28.904 102.145 26.568 102.145 23.944C102.145 21.32 102.753 18.984 103.969 16.936C105.217 14.888 106.881 13.272 108.961 12.088C111.041 10.904 113.377 10.312 115.969 10.312C118.529 10.312 120.849 10.904 122.929 12.088C125.009 13.272 126.657 14.888 127.873 16.936C129.121 18.952 129.745 21.288 129.745 23.944C129.745 26.568 129.121 28.904 127.873 30.952C126.625 33 124.961 34.616 122.881 35.8C120.801 36.984 118.497 37.576 115.969 37.576ZM115.969 31.816C117.377 31.816 118.609 31.48 119.665 30.808C120.753 30.136 121.601 29.208 122.209 28.024C122.849 26.808 123.169 25.448 123.169 23.944C123.169 22.408 122.849 21.064 122.209 19.912C121.601 18.728 120.753 17.8 119.665 17.128C118.609 16.424 117.377 16.072 115.969 16.072C114.529 16.072 113.265 16.424 112.177 17.128C111.089 17.8 110.225 18.728 109.585 19.912C108.977 21.064 108.673 22.408 108.673 23.944C108.673 25.448 108.977 26.808 109.585 28.024C110.225 29.208 111.089 30.136 112.177 30.808C113.265 31.48 114.529 31.816 115.969 31.816ZM146.658 37.576C144.13 37.576 141.874 36.984 139.89 35.8C137.906 34.584 136.338 32.936 135.186 30.856C134.034 28.776 133.458 26.472 133.458 23.944C133.458 21.384 134.034 19.08 135.186 17.032C136.338 14.984 137.906 13.352 139.89 12.136C141.906 10.92 144.146 10.312 146.61 10.312C148.594 10.312 150.354 10.712 151.89 11.512C153.458 12.28 154.69 13.368 155.586 14.776L154.626 16.072V0.663999H160.914V37H154.962V31.96L155.634 33.208C154.738 34.616 153.49 35.704 151.89 36.472C150.29 37.208 148.546 37.576 146.658 37.576ZM147.33 31.816C148.77 31.816 150.034 31.48 151.122 30.808C152.21 30.136 153.058 29.208 153.666 28.024C154.306 26.84 154.626 25.48 154.626 23.944C154.626 22.44 154.306 21.096 153.666 19.912C153.058 18.696 152.21 17.752 151.122 17.08C150.034 16.408 148.77 16.072 147.33 16.072C145.922 16.072 144.658 16.424 143.538 17.128C142.418 17.8 141.538 18.728 140.898 19.912C140.29 21.064 139.986 22.408 139.986 23.944C139.986 25.48 140.29 26.84 140.898 28.024C141.538 29.208 142.418 30.136 143.538 30.808C144.658 31.48 145.922 31.816 147.33 31.816Z" fill="#1BADF6"/>
</svg>
