<svg width="595" height="449" viewBox="0 0 595 449" fill="none" xmlns="http://www.w3.org/2000/svg">
<path d="M512.896 279.737C509.821 284.473 502.064 287.57 488.994 288.308C476.081 289.039 458.898 287.396 438.546 283.488C397.889 275.682 345.343 258.988 290.615 235.211C235.887 211.433 189.555 185.169 158.882 161.985C143.528 150.379 132.243 139.654 125.751 130.493C119.181 121.221 117.973 114.23 121.048 109.494C124.123 104.758 131.88 101.662 144.95 100.923C157.863 100.193 175.046 101.836 195.398 105.743C236.055 113.549 288.601 130.244 343.329 154.021C398.057 177.798 444.389 204.063 475.062 227.247C490.416 238.852 501.701 249.578 508.193 258.739C514.763 268.01 515.971 275.002 512.896 279.737Z" stroke="#CFEB6B" stroke-width="6"/>
<path d="M490.826 313.729C487.751 318.465 479.994 321.561 466.924 322.3C454.011 323.03 436.828 321.387 416.476 317.48C375.819 309.674 323.273 292.979 268.545 269.202C213.817 245.424 167.484 219.16 136.812 195.976C121.458 184.37 110.172 173.645 103.681 164.484C97.1107 155.212 95.9029 148.221 98.9778 143.485C102.053 138.749 109.81 135.653 122.88 134.914C135.793 134.184 152.975 135.827 173.327 139.734C213.985 147.54 266.53 164.235 321.258 188.012C375.987 211.79 422.319 238.054 452.992 261.238C468.346 272.844 479.631 283.569 486.122 292.73C492.693 302.002 493.9 308.993 490.826 313.729Z" stroke="#CFEB6B" stroke-width="6"/>
<path d="M474.273 339.221C471.198 343.957 463.441 347.054 450.371 347.792C437.458 348.523 420.276 346.88 399.923 342.972C359.266 335.166 306.72 318.472 251.992 294.695C197.264 270.917 150.932 244.653 120.259 221.469C104.905 209.863 93.6198 199.138 87.1285 189.977C80.5582 180.705 79.3504 173.714 82.4253 168.978C85.5002 164.242 93.2573 161.146 106.327 160.407C119.24 159.677 136.423 161.32 156.775 165.227C197.432 173.033 249.978 189.728 304.706 213.505C359.434 237.282 405.766 263.547 436.439 286.731C451.793 298.336 463.079 309.062 469.57 318.223C476.14 327.494 477.348 334.486 474.273 339.221Z" stroke="#CFEB6B" stroke-width="6"/>
</svg>
