<svg width="233" height="256" viewBox="0 0 233 256" fill="none" xmlns="http://www.w3.org/2000/svg">
<path fill-rule="evenodd" clip-rule="evenodd" d="M49.7987 255.321L0.838867 214.803L90.6918 0.320801H91.3668L72.4739 45.419L111.574 77.7773L134.597 22.8216L107.408 0.320801H109.701L135.187 21.4125L144.023 0.320801H145.373L136.19 22.2422L175.29 54.6005L198.029 0.320801H201.422L233 26.4535V28.3512L199.315 0.474467L176.293 55.4302L215.393 87.7884L233 45.7593V48.9821L216.395 88.6181L233 102.36V104.257L215.805 90.0272L192.783 144.983L231.883 177.341L233 174.674V177.897L232.885 178.171L233 178.266V180.163L232.295 179.58L209.273 234.536L227.218 249.387C226.873 249.736 226.514 250.072 226.144 250.396L208.682 235.945L200.565 255.321H199.215L207.68 235.115L168.579 202.757L146.559 255.321H145.209L167.577 201.927L128.477 169.569L105.454 224.525L142.667 255.321H140.374L104.864 225.934L92.5525 255.321H91.2024L103.861 225.104L64.7608 192.746L41.7382 247.701L50.9452 255.321H49.7987ZM174.7 56.0096L135.599 23.6513L112.577 78.607L151.677 110.965L174.7 56.0096ZM175.702 56.8393L214.803 89.1975L191.78 144.153L152.68 111.795L175.702 56.8393ZM71.8836 46.8281L110.984 79.1864L87.9614 134.142L48.861 101.784L71.8836 46.8281ZM151.087 112.374L111.986 80.0161L88.9639 134.972L128.064 167.33L151.087 112.374ZM152.089 113.204L191.19 145.562L168.167 200.518L129.067 168.16L152.089 113.204ZM231.293 178.75L192.192 146.392L169.17 201.348L208.27 233.706L231.293 178.75ZM48.2707 103.193L87.371 135.551L64.3485 190.507L25.2482 158.149L48.2707 103.193ZM127.474 168.739L88.3736 136.381L65.3511 191.337L104.451 223.695L127.474 168.739ZM24.6579 159.558L63.7582 191.916L40.7356 246.872L1.63532 214.513L24.6579 159.558Z" fill="white"/>
</svg>
